<?xml version="1.0" encoding="iso-8859-1"?>
<!-- Generator: Adobe Illustrator 17.1.0, SVG Export Plug-In . SVG Version: 6.00 Build 0)  -->
<!DOCTYPE svg PUBLIC "-//W3C//DTD SVG 1.1//EN" "http://www.w3.org/Graphics/SVG/1.1/DTD/svg11.dtd">
<svg version="1.1" id="Capa_1" xmlns="http://www.w3.org/2000/svg" xmlns:xlink="http://www.w3.org/1999/xlink" x="0px" y="0px"
	 viewBox="0 0 223.691 223.691" style="enable-background:new 0 0 223.691 223.691;" xml:space="preserve">
<path d="M219.691,214.096H4c-2.209,0-4-1.791-4-4v-75.091c0-1.608,0.963-3.061,2.445-3.686l26.411-11.141l2.336-106.671
	c0.047-2.174,1.824-3.912,3.999-3.912h21.5c2.175,0,3.952,1.738,3.999,3.912l2.517,114.927l10.722-4.522l1.834-83.771
	c0.047-2.174,1.824-3.912,3.999-3.912h17.32c2.175,0,3.952,1.738,3.999,3.912l1.569,71.657l7.641-3.223
	c1.236-0.521,2.649-0.389,3.766,0.353s1.789,1.992,1.789,3.333v16.716l48.368-20.401c1.237-0.521,2.65-0.388,3.766,0.353
	c1.117,0.741,1.789,1.992,1.789,3.333v16.716l48.368-20.401c1.237-0.521,2.65-0.388,3.766,0.353
	c1.117,0.741,1.789,1.992,1.789,3.333v97.835C223.691,212.305,221.9,214.096,219.691,214.096z M8,206.096h207.691v-87.807
	l-48.368,20.401c-1.235,0.523-2.65,0.388-3.766-0.353c-1.117-0.741-1.789-1.992-1.789-3.333v-16.716L113.4,138.69
	c-1.236,0.523-2.648,0.388-3.766-0.353c-1.117-0.741-1.789-1.992-1.789-3.333v-16.716l-7.501,3.164
	c-0.003,0.001-0.006,0.003-0.009,0.004l-39.431,16.632c-0.004,0.001-0.008,0.003-0.012,0.005l-1.414,0.597
	c-1.236,0.521-2.649,0.388-3.767-0.353c-1.117-0.741-1.789-1.992-1.789-3.333v-16.716L8,137.659V206.096z M83.676,44.229
	l-1.67,76.277l12.716-5.364l-1.553-70.913H83.676z M39.105,17.596l-2.172,99.177l17.852-7.529l-2.007-91.647H39.105z
	 M115.295,182.096c-2.209,0-4-1.791-4-4v-19.333c0-2.209,1.791-4,4-4c2.209,0,4,1.791,4,4v19.333
	C119.295,180.305,117.504,182.096,115.295,182.096z M87.316,182.096c-2.209,0-4-1.791-4-4v-19.333c0-2.209,1.791-4,4-4s4,1.791,4,4
	v19.333C91.316,180.305,89.525,182.096,87.316,182.096z M59.337,182.096c-2.209,0-4-1.791-4-4v-19.333c0-2.209,1.791-4,4-4
	s4,1.791,4,4v19.333C63.337,180.305,61.546,182.096,59.337,182.096z M31.358,182.096c-2.209,0-4-1.791-4-4v-19.333
	c0-2.209,1.791-4,4-4s4,1.791,4,4v19.333C35.358,180.305,33.567,182.096,31.358,182.096z"/>
<g>
</g>
<g>
</g>
<g>
</g>
<g>
</g>
<g>
</g>
<g>
</g>
<g>
</g>
<g>
</g>
<g>
</g>
<g>
</g>
<g>
</g>
<g>
</g>
<g>
</g>
<g>
</g>
<g>
</g>
</svg>
